<?xml version="1.0" encoding="UTF-8"?>
<svg xmlns="http://www.w3.org/2000/svg" version="1.1" viewBox="0 0 360.19 379.49">
  <!-- Generator: Adobe Illustrator 29.5.1, SVG Export Plug-In . SVG Version: 2.1.0 Build 141)  -->
  <defs>
    <style>
      .st0 {
        fill: #fdfcec;
        stroke: #ede98c;
        stroke-miterlimit: 10;
        stroke-width: 4px;
      }

      .st1 {
        fill: #ee6354;
      }

      .st2 {
        fill: #ed6354;
      }
    </style>
  </defs>
  <g id="Layer_1">
    <path class="st0" d="M357.37,187.03c1.69,14.22-6.57,37.8-9.54,51.16-17.69,79.63-85.12,142-165.46,138.89-87.02-3.36-137.97-41.9-162.55-111.19-3.35-9.44-17.52-51.65-17.52-71.81C2.3,113.09,60.06,12.13,132.37,3.09c40-5,32.4,13,50,13,13.69,0,2.64-14.36,40-13.96,77.09.84,125,100.96,135,184.9Z"/>
  </g>
  <g id="Layer_2">
    <path class="st1" d="M210.24,150.09c0,30.86-5.07,94.12-1.86,124,1.92,17.88-2.94,53.54,18.86,63,32.55,14.12,59.02-7.44,81.14-49,13.61-25.58,31-35,31-93,0-54.24-8.81-65.51-35.68-100.49-5.3-6.9-13.98-31.13-24.32-40.51-12.19-11.06-34.4-17.53-42.02-18.8-37.76-6.28-40.58-1.39-49.11,14.8-13.17,25,22,72.67,22,100Z"/>
    <path class="st1" d="M150.51,150.09c0,30.86,8.53,89.94,4.86,123-1.99,17.94.03,54.54-22.2,64-32.44,13.8-58.05-7.36-80.8-47-14.85-25.88-34-53-34-94,0-54.24,10.72-68.16,38.12-103.14,5.26-6.71,13.65-26.68,23.88-35.86,12.67-11.37,34.54-20.5,42.49-21.8,38.51-6.28,41.38-1.39,50.08,14.8,13.43,25-22.43,72.67-22.43,100Z"/>
    <path class="st2" d="M159.23,330.36c4.26,12.16,15.9-255.48,19.35-243.57,35.2,121.69,28.08,226.96-19.35,243.57"/>
  </g>
</svg>