<?xml version="1.0" encoding="UTF-8"?>
<svg id="Layer_4" xmlns="http://www.w3.org/2000/svg" version="1.1" viewBox="0 0 222 335">
  <!-- Generator: Adobe Illustrator 29.5.1, SVG Export Plug-In . SVG Version: 2.1.0 Build 141)  -->
  <defs>
    <style>
      .st0 {
        stroke: #c296c4;
        stroke-width: 9px;
      }

      .st0, .st1 {
        fill: none;
        stroke-miterlimit: 10;
      }

      .st2 {
        fill: #51256d;
      }

      .st1 {
        stroke: #000;
        stroke-width: 13px;
      }
    </style>
  </defs>
  <g id="Layer_1">
    <circle class="st2" cx="115.81" cy="98.05" r="49"/>
    <circle class="st2" cx="131.9" cy="279.53" r="49"/>
    <circle class="st2" cx="161.04" cy="216.21" r="49"/>
    <circle class="st2" cx="88.6" cy="217.71" r="49"/>
    <circle class="st2" cx="164.81" cy="129.5" r="49"/>
    <circle class="st2" cx="54" cy="128" r="49"/>
    <circle class="st2" cx="115.81" cy="159.6" r="49"/>
  </g>
  <g id="Layer_2">
    <path class="st0" d="M84.74,267.52c-.68,0-1.28-.12-1.82-.31-.99,3.95-1.52,8.07-1.52,12.33,0,27.89,22.61,50.5,50.5,50.5s50.5-22.61,50.5-50.5c0-5.83-1-11.42-2.82-16.63"/>
    <path class="st0" d="M125.33,251.92c18.6,18.59,50.5,20.8,69.09,2.19,13.64-13.66,17.64-30.86,15.62-43.81-1.83-11.75-4.16-18.89-16.15-33.3"/>
    <path class="st0" d="M55.5,180c-23.78,18.66-25.21,51.58-3.46,72.56,20.94,20.2,55.7,18.14,74.14-4.36,9.5-11.6,14.72-29.18,9.59-43.7"/>
    <circle class="st0" cx="115.81" cy="158.1" r="50.5"/>
    <path class="st0" d="M101.94,109.64c-7.71-18.02-25.6-30.64-46.44-30.64-27.89,0-50.5,22.61-50.5,50.5s22.61,50.5,50.5,50.5c4.53,0,8.91-.61,13.09-1.72"/>
    <path class="st0" d="M161.04,178.5c24.82,3.1,36.49-5.25,46.66-18.9,11.94-16.02,10.43-36.23,4.87-48.89-10.23-23.3-37.16-35.54-61.45-27.88-13.91,4.38-25.49,14.88-31.23,28.28"/>
    <path class="st0" d="M162.96,79.4c-15.61-42.16-81.02-41.49-95.01,2.05"/>
  </g>
  <g id="Layer_3">
    <path class="st1" d="M111.31,103.95c-4.86-48.93,28.49-92.22,74.55-96.79"/>
  </g>
</svg>