<?xml version="1.0" encoding="UTF-8"?>
<svg xmlns="http://www.w3.org/2000/svg" version="1.1" viewBox="0 0 467 468">
  <!-- Generator: Adobe Illustrator 29.5.1, SVG Export Plug-In . SVG Version: 2.1.0 Build 141)  -->
  <defs>
    <style>
      .st0 {
        fill: #f1e918;
      }

      .st1 {
        fill: #fefce7;
        stroke: #f1e918;
        stroke-miterlimit: 10;
        stroke-width: 13px;
      }
    </style>
  </defs>
  <g id="lemon-border">
    <circle id="le-rind" class="st1" cx="233.96" cy="234.42" r="226.48"/>
  </g>
  <g id="lemon-slices">
    <path id="le8" class="st0" d="M204.04,381.38c-.45.79-1.08,1.39-1.79,1.81l-7.11,26.02c15.26,3.56,30.87,5.4,46.27,8.26.53.1.99.29,1.38.53,6.34-1.02,12.72-2.23,19.15-3.68,24.53-5.54,49.08-13.68,72.69-23.2,9.62-8.6,18.21-18.56,27.54-27.52l-115.47-118.09c-7.91,24.09-12.56,50.46-23.96,72.92-.39,1.5-.58,3.07-.6,4.7-.03,1.8-.77,3.09-1.82,3.88-1.26,8.54-3.48,16.97-6.02,25.1-2.38,7.63-5.07,15.43-8.84,22.48.25,2.22-.14,4.52-1.42,6.78Z"/>
    <path id="le7" class="st0" d="M365.5,351.67c13.14-12.58,23.69-29.33,31.78-45.48,9.21-18.37,18.01-41.44,14.64-60.64l-159.38-2.76,112.95,108.88Z"/>
    <path id="le6" class="st0" d="M412.99,213.12c-.91-13.37-1.46-27.21-4.56-40.28-4.45-18.79-15.42-33.99-26.3-49.42l-131.3,111,163.54-.74c-.49-6.85-.91-13.71-1.38-20.56Z"/>
    <path id="le5" class="st0" d="M283.68,87.95c.48-.79,1.17-1.4,1.95-1.82l7.73-26.14c-16.59-3.58-33.57-5.43-50.32-8.3-.58-.1-1.07-.29-1.5-.53-6.9,1.03-13.84,2.24-20.83,3.7-26.67,5.57-53.38,13.75-79.06,23.31-10.46,8.64-19.8,18.65-29.95,27.65l125.59,118.64c8.61-24.21,13.66-50.7,26.06-73.26.43-1.51.63-3.08.65-4.72.03-1.81.84-3.11,1.98-3.9,1.38-8.58,3.79-17.05,6.55-25.22,2.59-7.66,5.52-15.5,9.61-22.58-.28-2.23.15-4.54,1.54-6.82Z"/>
    <path id="le4" class="st0" d="M108.09,117.8c-14.29,12.64-25.77,29.47-34.57,45.69-10.01,18.45-19.59,41.63-15.92,60.93l173.34,2.77-122.85-109.39Z"/>
    <path id="le3" class="st0" d="M239.91,241.68c-5.03,2.49-10.27,4.65-15.33,6.95-5.31,2.41-10.88,4.88-15.52,8.48-3.51,2.72-6.63,5.97-9.79,9.06-8.97,8.79-19.87,20.16-32.28,24.23-.45.47-.9.94-1.35,1.41-20.24,20.75-42.77,39.25-66.93,55.46,23.19,27.58,53.21,47.67,86.41,60.65l40.06-112.46c3.98-18.15,10.03-35.76,14.73-53.78Z"/>
    <path id="le2" class="st0" d="M269.88,207.8c11.7-9.77,20.86-21.94,31.65-32.63,18.34-18.17,39.4-33.47,62.05-45.8l13.12-14.11c-18.43-23.35-44.35-39.05-72.14-50.7l-60.78,159.91c9.28-4.57,18.13-10.02,26.09-16.66Z"/>
    <path id="le1" class="st0" d="M55.3,235.12c-2.36,17.2.58,35.52,5.25,51.8,5.31,18.53,14.41,39.98,31.38,50.77l142.03-103.27-178.66.7Z"/>
  </g>
</svg>

